<svg width="201" height="51" viewBox="0 0 201 51" fill="none" xmlns="http://www.w3.org/2000/svg">
<path d="M29.4211 4.53043V28.9696C29.4211 37.5304 23.2037 42.0261 15.1211 42.0261C7.08628 42.0261 0.964545 37.5304 0.964545 28.8739C0.964545 26.5304 2.82976 25.0478 5.22107 25.0478C7.61237 25.0478 9.47759 26.5304 9.47759 28.8739C9.47759 31.887 11.5819 34.3739 15.1689 34.3739C18.708 34.3739 20.8124 31.887 20.8124 28.8739V4.53043C20.8124 2.04348 22.7254 0.465218 25.1167 0.465218C27.508 0.465218 29.4211 2.04348 29.4211 4.53043ZM62.1068 26.6739C62.1068 29.5435 60.8155 30.9783 57.8503 30.9783H43.0721C43.7894 33.0826 46.1329 34.5174 48.9547 34.5174C51.6807 34.5174 53.8807 33.8 55.6503 33.0348C57.4199 32.3174 59.046 33.1783 59.7634 34.6609C60.4807 36.1913 60.3851 38.0565 58.6155 39.1565C56.1764 40.687 52.6851 41.5478 48.6677 41.5478C40.5851 41.5478 34.4634 35.4739 34.4634 27.487C34.4634 19.4043 40.1547 13.2826 48.4764 13.2826C56.2242 13.2826 62.1068 19.5 62.1068 26.6739ZM42.8807 24.187H53.8807C53.3068 22.1304 51.059 20.4565 48.4764 20.4565C45.8938 20.4565 43.5025 22.1304 42.8807 24.187ZM68.1426 5.29565C68.1426 2.66522 70.3426 0.465218 72.9731 0.465218C75.6035 0.465218 77.8035 2.66522 77.8035 5.29565C77.8035 7.92609 75.6035 10.1261 72.9731 10.1261C70.3426 10.1261 68.1426 7.92609 68.1426 5.29565ZM77.1339 17.2522V40.9739C77.1339 46.7609 74.1209 50.3478 67.6166 50.3478C66.2296 50.3478 64.3644 50.2043 62.9774 49.3913C61.7818 48.7217 60.8252 47 61.447 44.9913C62.0687 42.9826 64.0296 42.3609 65.2252 42.6957C65.7992 42.8391 66.2774 42.9826 66.947 42.9826C67.9992 42.9826 68.8122 42.1696 68.8122 40.3043V17.2522C68.8122 14.7174 70.5818 13.2826 72.9731 13.2826C75.3644 13.2826 77.1339 14.7652 77.1339 17.2522ZM83.3394 31.0739V17.2522C83.3394 14.7652 85.1089 13.2826 87.5002 13.2826C89.8915 13.2826 91.6611 14.7652 91.6611 17.2522V30.213C91.6611 32.6043 93.2394 34.3261 95.6307 34.3261C97.9742 34.3261 99.6481 32.6522 99.6481 30.3565V17.2522C99.6481 14.7652 101.418 13.2826 103.809 13.2826C106.2 13.2826 107.97 14.7652 107.97 17.2522V37.7217C107.97 40.2087 106.2 41.6913 103.809 41.6913C101.848 41.6913 100.27 40.6391 99.7915 38.9174C98.4046 40.7826 95.9655 41.6913 93.335 41.6913C88.2176 41.6913 83.3394 38.7261 83.3394 31.0739ZM138.328 17.2522V39.1565C138.328 46.713 133.45 50.3478 125.941 50.3478C123.789 50.3478 120.154 50.1087 117.906 49.2478C115.898 48.4826 115.18 46.6174 115.659 44.8C116.137 43.0304 117.667 41.6435 119.772 42.2174C121.398 42.6478 123.598 42.9826 125.846 42.9826C128.189 42.9826 130.15 41.8348 130.15 39.5391V36.6217C128.763 38.487 126.324 39.3957 123.693 39.3957C118.576 39.3957 113.698 36.4304 113.698 28.7783V17.2522C113.698 14.7652 115.467 13.2826 117.859 13.2826C120.25 13.2826 122.019 14.7652 122.019 17.2522V27.9174C122.019 30.3087 123.598 32.0304 125.989 32.0304C128.333 32.0304 130.006 30.3565 130.006 28.0609V17.2522C130.006 14.7652 131.776 13.2826 134.167 13.2826C136.559 13.2826 138.328 14.7652 138.328 17.2522ZM157.352 13.2826C165.387 13.2826 171.556 19.4043 171.556 27.2957C171.556 35.2348 165.387 41.5478 157.352 41.5478C149.317 41.5478 143.1 35.2348 143.1 27.2957C143.1 19.4043 149.317 13.2826 157.352 13.2826ZM157.352 20.6478C153.908 20.6478 151.421 23.4696 151.421 27.2957C151.421 31.1696 153.908 34.1826 157.352 34.1826C160.7 34.1826 163.234 31.1696 163.234 27.2957C163.234 23.4696 160.7 20.6478 157.352 20.6478ZM176.329 31.0739V17.2522C176.329 14.7652 178.099 13.2826 180.49 13.2826C182.882 13.2826 184.651 14.7652 184.651 17.2522V30.213C184.651 32.6043 186.229 34.3261 188.621 34.3261C190.964 34.3261 192.638 32.6522 192.638 30.3565V17.2522C192.638 14.7652 194.408 13.2826 196.799 13.2826C199.19 13.2826 200.96 14.7652 200.96 17.2522V37.7217C200.96 40.2087 199.19 41.6913 196.799 41.6913C194.838 41.6913 193.26 40.6391 192.782 38.9174C191.395 40.7826 188.955 41.6913 186.325 41.6913C181.208 41.6913 176.329 38.7261 176.329 31.0739Z" fill="black"/>
</svg>
